<svg width="128" height="128" viewBox="0 0 128 128" fill="none" xmlns="http://www.w3.org/2000/svg">
  <rect width="128" height="128" rx="12" fill="#007ACC"/>
  <path d="M28 64V51.3H46.1V36.4H60.9V51.3H99.1V64H60.9V96.5C60.9 97.9 61.3 99 62.2 99.9C63.1 100.8 64.3 101.2 65.7 101.2H99.1V114H63.3C58.4 114 54.5 112.4 51.6 109.2C48.8 106 47.3 102 47.3 97.1V64H28Z" fill="white"/>
  <path d="M84.4 114C80.5 114 77.2 112.8 74.4 110.4C71.7 108 70.3 105 70.3 101.5C70.3 98.1 71.3 95.1 73.4 92.6C75.5 90.1 78.3 88.1 81.8 86.7C85.4 85.3 89.4 84.6 94 84.6C96.9 84.6 99.7 84.9 102.4 85.6V82.3C102.4 79.1 101.5 76.6 99.6 74.7C97.8 72.8 95.3 71.9 92.1 71.9C89.9 71.9 87.8 72.4 85.9 73.3C84 74.3 82.5 75.6 81.4 77.3L71.7 70.5C73.8 67.3 76.6 64.8 80.2 62.9C83.8 61.1 87.8 60.2 92.2 60.2C99.8 60.2 105.6 62.1 109.5 66C113.5 69.9 115.5 75.6 115.5 83.1V114H102.7V108.4H102.4C100.7 110.6 98.4 112.3 95.6 113.4C92.8 114.5 89.8 115 86.5 115L84.4 114ZM89.4 103.5C92.8 103.5 95.7 102.4 98 100.2C100.3 98 101.5 95.3 101.5 92V94.8C99.3 94 96.8 93.6 94 93.6C90.3 93.6 87.4 94.3 85.2 95.7C83.1 97.1 82 98.9 82 101.1C82 102.9 82.7 104.4 84 105.5C85.3 106.6 87 107.2 89.1 107.2L89.4 103.5Z" fill="white"/>
</svg>